<svg width="18" height="18" viewBox="0 0 18 18" fill="none" xmlns="http://www.w3.org/2000/svg">
<path fill-rule="evenodd" clip-rule="evenodd" d="M9 2.625C5.48475 2.625 2.625 5.48475 2.625 9C2.625 12.5153 5.48475 15.375 9 15.375C12.5153 15.375 15.375 12.5153 15.375 9C15.375 5.48475 12.5153 2.625 9 2.625ZM9 16.5C4.8645 16.5 1.5 13.1355 1.5 9C1.5 4.8645 4.8645 1.5 9 1.5C13.1355 1.5 16.5 4.8645 16.5 9C16.5 13.1355 13.1355 16.5 9 16.5Z" fill="white"/>
<path fill-rule="evenodd" clip-rule="evenodd" d="M11.5733 11.769C11.4751 11.769 11.3761 11.7435 11.2853 11.6903L8.45785 10.0035C8.28835 9.90154 8.18335 9.71779 8.18335 9.51979V5.88379C8.18335 5.57329 8.43535 5.32129 8.74585 5.32129C9.0571 5.32129 9.30835 5.57329 9.30835 5.88379V9.20029L11.8621 10.7228C12.1283 10.8825 12.2161 11.2275 12.0571 11.4945C11.9513 11.6708 11.7646 11.769 11.5733 11.769Z" fill="white"/>
</svg>
