<svg width="24" height="24" viewBox="0 0 24 24" fill="none" xmlns="http://www.w3.org/2000/svg">
<path d="M9.75012 1.2343C11.2168 0.92728 12.749 0.91759 14.2494 1.23128C14.444 2.50657 15.1951 3.68505 16.3993 4.38025C17.6034 5.07545 18.9996 5.13672 20.2012 4.6676C21.2232 5.81018 21.9808 7.1419 22.4483 8.5656C21.4425 9.37183 20.7985 10.6107 20.7985 12C20.7985 13.3901 21.4433 14.6296 22.45 15.4358C22.2176 16.1401 21.9101 16.8315 21.5246 17.4991C21.1392 18.1668 20.6943 18.7787 20.2005 19.3321C18.9989 18.8633 17.6031 18.9248 16.3993 19.6197C15.1961 20.3144 14.4452 21.4916 14.2498 22.7658C12.7832 23.0727 11.251 23.0824 9.75058 22.7687C9.55597 21.4935 8.80483 20.3149 7.6007 19.6197C6.39659 18.9245 5.00043 18.8633 3.79869 19.3325C2.77679 18.1899 2.01912 16.8581 1.55168 15.4344C2.55744 14.6282 3.20145 13.3893 3.20145 12C3.20145 10.6099 2.55669 9.37039 1.54993 8.56419C1.7823 7.85985 2.08982 7.16858 2.47528 6.50092C2.86075 5.83327 3.30565 5.22132 3.79945 4.6679C5.00102 5.13669 6.39684 5.07531 7.6007 4.38025C8.80387 3.6856 9.55478 2.50844 9.75012 1.2343ZM12 15.2994C13.8222 15.2994 15.2995 13.8223 15.2995 12C15.2995 10.1778 13.8222 8.70056 12 8.70056C10.1777 8.70056 8.70052 10.1778 8.70052 12C8.70052 13.8223 10.1777 15.2994 12 15.2994Z" fill="#5E5E62"/>
</svg>
