<svg width="22" height="22" viewBox="0 0 22 22" fill="none" xmlns="http://www.w3.org/2000/svg">
<g clip-path="url(#clip0_2072_394)">
<path d="M0 18.9751V8.08852C0 7.18789 0.546563 6.38008 1.38188 6.04664L10.5909 2.36508C10.8522 2.25852 11.1444 2.25852 11.4091 2.36508L20.6181 6.04664C21.4534 6.38008 22 7.19133 22 8.08852V18.9751C22 19.4323 21.6322 19.8001 21.175 19.8001H19.525C19.0678 19.8001 18.7 19.4323 18.7 18.9751V9.90008C18.7 9.29164 18.2084 8.80008 17.6 8.80008H4.4C3.79156 8.80008 3.3 9.29164 3.3 9.90008V18.9751C3.3 19.4323 2.93219 19.8001 2.475 19.8001H0.825C0.367813 19.8001 0 19.4323 0 18.9751ZM16.775 19.8001H5.225C4.76781 19.8001 4.4 19.4323 4.4 18.9751V17.0501H17.6V18.9751C17.6 19.4323 17.2322 19.8001 16.775 19.8001ZM4.4 15.9501V13.7501H17.6V15.9501H4.4ZM4.4 12.6501V9.90008H17.6V12.6501H4.4Z" fill="#5E5E62"/>
</g>
<defs>
<clipPath id="clip0_2072_394">
<rect width="22" height="22" fill="white"/>
</clipPath>
</defs>
</svg>
